<svg width="750" height="550" viewBox="0 0 750 550" fill="none" xmlns="http://www.w3.org/2000/svg">
<circle r="250" transform="matrix(-1 0 0 1 300 250)" fill="#B4FDDE"/>
<circle r="50" transform="matrix(-1 0 0 1 534 450)" fill="#B4FDDE"/>
<circle r="25" transform="matrix(-1 0 0 1 196 525)" fill="#B4FDDE"/>
<circle r="25" transform="matrix(-1 0 0 1 534 75)" fill="#B4FDDE"/>
<circle r="37.5" transform="matrix(-1 0 0 1 666.5 207.5)" fill="#B4FDDE"/>
<circle r="25" transform="matrix(-1 0 0 1 584 225)" fill="#B4FDDE"/>
<circle r="50" transform="matrix(-1 0 0 1 50 50)" fill="#B4FDDE"/>
<circle r="50" transform="matrix(-1 0 0 1 600 140)" fill="#B4FDDE"/>
<circle r="100" transform="matrix(-1 0 0 1 650 350)" fill="#B4FDDE"/>
</svg>
