<svg width="700" height="700" viewBox="0 0 700 700" fill="none" xmlns="http://www.w3.org/2000/svg">
<circle cx="350" cy="350" r="350" fill="#BBAAFF"/>
<path d="M490.31 197.273H487.113V109.69C487.113 96.2464 481.773 83.3532 472.266 73.8469C462.76 64.3406 449.867 59 436.423 59H250.868C244.211 59 237.619 60.3111 231.469 62.8585C225.319 65.4059 219.731 69.1397 215.024 73.8468C210.317 78.5538 206.583 84.1418 204.036 90.2918C201.488 96.4419 200.177 103.033 200.177 109.69V590.174C200.177 596.831 201.488 603.422 204.036 609.572C206.583 615.722 210.317 621.31 215.024 626.017C219.731 630.724 225.319 634.458 231.469 637.006C237.619 639.553 244.211 640.864 250.868 640.864H436.423C449.867 640.864 462.76 635.524 472.266 626.018C481.772 616.511 487.113 603.618 487.113 590.174V259.615H490.31L490.31 197.273Z" fill="#3F3D56"/>
<path d="M438.468 72.188H414.247C415.361 74.9188 415.786 77.8817 415.485 80.8155C415.184 83.7494 414.166 86.5642 412.521 89.0121C410.876 91.4599 408.654 93.4656 406.051 94.8525C403.449 96.2394 400.545 96.9649 397.595 96.9652H291.293C288.344 96.9649 285.44 96.2394 282.837 94.8525C280.234 93.4657 278.013 91.4599 276.368 89.0121C274.722 86.5643 273.705 83.7494 273.404 80.8156C273.103 77.8817 273.528 74.9188 274.642 72.188H252.019C241.98 72.188 232.351 76.1763 225.252 83.2754C218.153 90.3746 214.164 100.003 214.164 110.043V589.822C214.164 594.793 215.143 599.715 217.046 604.308C218.948 608.901 221.737 613.074 225.252 616.589C228.767 620.104 232.94 622.893 237.533 624.795C242.126 626.698 247.048 627.677 252.019 627.677H438.468C443.439 627.677 448.362 626.698 452.954 624.795C457.547 622.893 461.72 620.104 465.236 616.589C468.751 613.074 471.539 608.901 473.441 604.308C475.344 599.715 476.323 594.793 476.323 589.822V110.043C476.323 105.072 475.344 100.149 473.441 95.5564C471.539 90.9637 468.751 86.7906 465.236 83.2754C461.72 79.7603 457.547 76.9719 452.954 75.0695C448.362 73.1671 443.439 72.188 438.468 72.188Z" fill="#FEFEFE"/>
<g clip-path="url(#clip0)">
<path d="M330.807 329.506C335.538 329.506 339.373 323.59 339.373 316.293C339.373 308.996 335.538 303.08 330.807 303.08C326.076 303.08 322.241 308.996 322.241 316.293C322.241 323.59 326.076 329.506 330.807 329.506Z" fill="#1283B3"/>
<path d="M326.913 322.233C329.063 322.233 330.807 319.544 330.807 316.227C330.807 312.91 329.063 310.221 326.913 310.221C324.763 310.221 323.019 312.91 323.019 316.227C323.019 319.544 324.763 322.233 326.913 322.233Z" fill="#0DB8FF"/>
<path d="M324.966 318.015C325.611 318.015 326.134 317.209 326.134 316.214C326.134 315.219 325.611 314.412 324.966 314.412C324.321 314.412 323.798 315.219 323.798 316.214C323.798 317.209 324.321 318.015 324.966 318.015Z" fill="#1283B3"/>
<path d="M303.901 348.562C300.714 346.076 300.714 341.269 303.901 338.783L359.519 295.402C363.608 292.212 369.588 295.116 369.588 300.291V387.054C369.588 392.229 363.608 395.133 359.519 391.943L303.901 348.562Z" fill="#FFBF00"/>
<path d="M371.768 304.788C371.768 301.359 374.558 298.579 377.998 298.579V321.863C374.558 321.863 371.768 319.083 371.768 315.654V304.788Z" fill="#0DB8FF"/>
<path d="M377.998 298.579C386.6 298.579 393.573 305.528 393.573 314.101V321.863H377.998V298.579Z" fill="#0DB8FF"/>
<path d="M361.022 330.866C362.484 330.866 363.67 328.538 363.67 325.666C363.67 322.794 362.484 320.466 361.022 320.466C359.56 320.466 358.374 322.794 358.374 325.666C358.374 328.538 359.56 330.866 361.022 330.866Z" fill="#4C12B3"/>
<path d="M361.801 328.848C362.661 328.848 363.358 327.423 363.358 325.666C363.358 323.908 362.661 322.484 361.801 322.484C360.94 322.484 360.243 323.908 360.243 325.666C360.243 327.423 360.94 328.848 361.801 328.848Z" fill="#4C12B3"/>
<path d="M381.892 324.502H361.645V326.83H381.892V324.502Z" fill="#4C12B3"/>
<path d="M381.892 322.949H379.556V324.502H381.892V322.949Z" fill="#4C12B3"/>
<path d="M384.228 321.863H393.573V351.356C393.573 356.5 389.389 360.67 384.228 360.67V321.863Z" fill="#0DB8FF"/>
<path d="M374.883 356.789C374.883 352.503 378.37 349.028 382.671 349.028H384.228V360.67H378.777C376.627 360.67 374.883 358.932 374.883 356.789Z" fill="#0DB8FF"/>
<path d="M341.553 328.419C346.284 328.419 350.12 322.504 350.12 315.207C350.12 307.909 346.284 301.994 341.553 301.994C336.822 301.994 332.987 307.909 332.987 315.207C332.987 322.504 336.822 328.419 341.553 328.419Z" fill="#1283B3"/>
<path d="M337.66 321.146C339.81 321.146 341.553 318.457 341.553 315.14C341.553 311.823 339.81 309.134 337.66 309.134C335.509 309.134 333.766 311.823 333.766 315.14C333.766 318.457 335.509 321.146 337.66 321.146Z" fill="#0DB8FF"/>
<path d="M335.713 316.929C336.358 316.929 336.881 316.122 336.881 315.127C336.881 314.132 336.358 313.325 335.713 313.325C335.068 313.325 334.545 314.132 334.545 315.127C334.545 316.122 335.068 316.929 335.713 316.929Z" fill="#1283B3"/>
<path d="M347.257 366.956C352.384 365.491 354.656 357.756 352.333 349.68C350.009 341.604 343.97 336.245 338.843 337.71C333.717 339.175 331.444 346.91 333.768 354.986C336.091 363.062 342.131 368.421 347.257 366.956Z" fill="#0DB8FF"/>
<path d="M344.214 365.489C346.835 364.74 347.996 360.787 346.809 356.658C345.621 352.53 342.533 349.79 339.913 350.539C337.292 351.288 336.131 355.242 337.318 359.37C338.506 363.499 341.593 366.238 344.214 365.489Z" fill="#1283B3"/>
<path d="M316.958 411.963C317.282 412.274 317.444 412.634 317.444 413.044C317.444 413.453 317.288 413.814 316.976 414.124C316.665 414.434 316.297 414.59 315.874 414.59C315.413 414.59 314.989 414.391 314.603 413.994L309.276 408.554V412.951C309.276 413.472 309.12 413.888 308.809 414.199C308.497 414.497 308.074 414.646 307.538 414.646C307.015 414.646 306.597 414.497 306.286 414.199C305.987 413.888 305.837 413.472 305.837 412.951V402.985C305.837 402.476 305.987 402.072 306.286 401.774C306.597 401.464 307.015 401.308 307.538 401.308C308.074 401.308 308.497 401.464 308.809 401.774C309.12 402.072 309.276 402.476 309.276 402.985V407.083L314.528 401.811C314.852 401.476 315.219 401.308 315.631 401.308C316.042 401.308 316.403 401.464 316.715 401.774C317.026 402.072 317.182 402.426 317.182 402.836C317.182 403.246 317.001 403.624 316.64 403.972L312.808 407.716L316.958 411.963ZM324.692 414.701C323.346 414.701 322.175 414.428 321.178 413.882C320.194 413.323 319.434 412.541 318.898 411.535C318.362 410.517 318.094 409.324 318.094 407.958C318.094 406.592 318.362 405.406 318.898 404.401C319.434 403.382 320.194 402.6 321.178 402.053C322.175 401.507 323.346 401.234 324.692 401.234C326.038 401.234 327.203 401.507 328.187 402.053C329.184 402.6 329.944 403.382 330.467 404.401C331.003 405.406 331.271 406.592 331.271 407.958C331.271 409.324 331.003 410.517 330.467 411.535C329.931 412.541 329.165 413.323 328.168 413.882C327.184 414.428 326.025 414.701 324.692 414.701ZM324.692 412.075C325.689 412.075 326.467 411.727 327.028 411.032C327.589 410.324 327.869 409.3 327.869 407.958C327.869 406.617 327.583 405.599 327.009 404.903C326.449 404.208 325.676 403.86 324.692 403.86C323.695 403.86 322.916 404.208 322.356 404.903C321.795 405.586 321.515 406.605 321.515 407.958C321.515 409.312 321.795 410.336 322.356 411.032C322.916 411.727 323.695 412.075 324.692 412.075ZM337.286 414.627C336.763 414.627 336.339 414.478 336.015 414.18C335.703 413.869 335.548 413.46 335.548 412.951V404.177H332.912C332.364 404.177 331.953 404.065 331.679 403.842C331.417 403.606 331.286 403.252 331.286 402.78C331.286 402.308 331.417 401.96 331.679 401.737C331.953 401.513 332.364 401.402 332.912 401.402H341.659C342.207 401.402 342.612 401.513 342.874 401.737C343.148 401.96 343.285 402.308 343.285 402.78C343.285 403.252 343.148 403.606 342.874 403.842C342.612 404.065 342.207 404.177 341.659 404.177H339.024V412.951C339.024 413.46 338.862 413.869 338.538 414.18C338.227 414.478 337.809 414.627 337.286 414.627ZM354.814 401.308C355.325 401.308 355.73 401.464 356.029 401.774C356.34 402.072 356.496 402.476 356.496 402.985V412.951C356.496 413.46 356.34 413.869 356.029 414.18C355.73 414.49 355.325 414.646 354.814 414.646C354.303 414.646 353.892 414.497 353.58 414.199C353.281 413.888 353.132 413.472 353.132 412.951V409.225H347.749V412.951C347.749 413.46 347.593 413.869 347.282 414.18C346.983 414.49 346.578 414.646 346.067 414.646C345.556 414.646 345.145 414.497 344.833 414.199C344.534 413.888 344.385 413.472 344.385 412.951V402.985C344.385 402.476 344.534 402.072 344.833 401.774C345.145 401.464 345.556 401.308 346.067 401.308C346.578 401.308 346.983 401.464 347.282 401.774C347.593 402.072 347.749 402.476 347.749 402.985V406.505H353.132V402.985C353.132 402.476 353.281 402.072 353.58 401.774C353.892 401.464 354.303 401.308 354.814 401.308ZM365.156 414.701C363.81 414.701 362.639 414.428 361.642 413.882C360.658 413.323 359.898 412.541 359.362 411.535C358.826 410.517 358.559 409.324 358.559 407.958C358.559 406.592 358.826 405.406 359.362 404.401C359.898 403.382 360.658 402.6 361.642 402.053C362.639 401.507 363.81 401.234 365.156 401.234C366.502 401.234 367.667 401.507 368.651 402.053C369.648 402.6 370.408 403.382 370.931 404.401C371.467 405.406 371.735 406.592 371.735 407.958C371.735 409.324 371.467 410.517 370.931 411.535C370.395 412.541 369.629 413.323 368.632 413.882C367.648 414.428 366.489 414.701 365.156 414.701ZM365.156 412.075C366.153 412.075 366.932 411.727 367.492 411.032C368.053 410.324 368.333 409.3 368.333 407.958C368.333 406.617 368.047 405.599 367.474 404.903C366.913 404.208 366.14 403.86 365.156 403.86C364.159 403.86 363.381 404.208 362.82 404.903C362.259 405.586 361.979 406.605 361.979 407.958C361.979 409.312 362.259 410.336 362.82 411.032C363.381 411.727 364.159 412.075 365.156 412.075ZM383.9 401.308C384.374 401.308 384.76 401.464 385.059 401.774C385.37 402.085 385.526 402.488 385.526 402.985V412.951C385.526 413.46 385.377 413.869 385.078 414.18C384.778 414.49 384.392 414.646 383.919 414.646C383.358 414.646 382.934 414.459 382.648 414.087L376.966 407.027V412.951C376.966 413.46 376.823 413.869 376.536 414.18C376.25 414.49 375.863 414.646 375.378 414.646C374.904 414.646 374.518 414.49 374.219 414.18C373.92 413.869 373.77 413.46 373.77 412.951V402.985C373.77 402.488 373.92 402.085 374.219 401.774C374.518 401.464 374.904 401.308 375.378 401.308C375.913 401.308 376.331 401.495 376.63 401.867L382.311 408.908V402.985C382.311 402.476 382.455 402.072 382.741 401.774C383.04 401.464 383.427 401.308 383.9 401.308Z" fill="#1283B3"/>
</g>
<path d="M25 134.154H271.759V215.161H262.412V236.347L241.226 215.161H25V134.154Z" fill="#4C12B3"/>
<path d="M262.498 247.012C247.695 247.012 235.694 245.869 235.694 244.459C235.694 243.05 247.695 241.907 262.498 241.907C277.302 241.907 289.302 243.05 289.302 244.459C289.302 245.869 277.302 247.012 262.498 247.012Z" fill="#E6E6E6"/>
<g clip-path="url(#clip1)">
<path d="M99.9459 170.53C99.9459 169.426 99.0508 168.531 97.9471 168.531H96.9477C94.7397 168.531 92.9502 170.321 92.9502 172.529V175.527C92.9502 177.735 94.7397 179.524 96.9477 179.524H97.9471C99.0508 179.524 99.9459 178.629 99.9459 177.526V170.53ZM110.939 179.524C113.147 179.524 114.937 177.735 114.937 175.527V172.529C114.937 170.321 113.147 168.531 110.939 168.531H109.94C108.836 168.531 107.941 169.426 107.941 170.53V177.526C107.941 178.629 108.836 179.524 109.94 179.524H110.939ZM103.943 157.538C95.0226 157.538 88.2393 164.96 87.9532 173.528V174.527C87.9532 175.08 88.4005 175.527 88.9526 175.527H89.952C90.5042 175.527 90.9514 175.08 90.9514 174.527V173.528C90.9514 166.364 96.7797 160.536 103.943 160.536C111.107 160.536 116.935 166.364 116.935 173.528H116.928C116.933 173.68 116.935 183.879 116.935 183.879C116.935 185.338 115.753 186.52 114.295 186.52H107.941C107.941 184.864 106.599 183.522 104.943 183.522H102.944C101.288 183.522 99.9459 184.864 99.9459 186.52C99.9459 188.176 101.288 189.518 102.944 189.518H114.295C117.409 189.518 119.934 186.993 119.934 183.879V173.528C119.647 164.96 112.864 157.538 103.943 157.538Z" fill="#FEFEFE"/>
</g>
<path d="M145.072 191.044C142.52 191.044 140.296 190.501 138.401 189.414C136.506 188.302 135.053 186.723 134.042 184.676C133.031 182.604 132.526 180.166 132.526 177.361C132.526 174.581 133.031 172.168 134.042 170.121C135.053 168.049 136.506 166.47 138.401 165.383C140.296 164.271 142.52 163.715 145.072 163.715C146.74 163.715 148.319 163.98 149.81 164.511C151.301 165.017 152.602 165.762 153.714 166.747C154.194 167.127 154.434 167.632 154.434 168.264C154.434 168.718 154.308 169.11 154.055 169.439C153.802 169.742 153.499 169.894 153.145 169.894C152.716 169.894 152.299 169.729 151.895 169.401C150.682 168.491 149.57 167.859 148.559 167.506C147.573 167.127 146.449 166.937 145.186 166.937C142.406 166.937 140.271 167.834 138.78 169.628C137.289 171.422 136.543 174 136.543 177.361C136.543 180.747 137.289 183.337 138.78 185.131C140.271 186.925 142.406 187.822 145.186 187.822C146.398 187.822 147.498 187.633 148.483 187.254C149.494 186.875 150.631 186.243 151.895 185.358C152.4 185.03 152.817 184.866 153.145 184.866C153.499 184.866 153.802 185.03 154.055 185.358C154.308 185.662 154.434 186.041 154.434 186.495C154.434 187.127 154.194 187.633 153.714 188.012C152.602 188.997 151.301 189.755 149.81 190.286C148.319 190.791 146.74 191.044 145.072 191.044ZM166.032 171.789C168.484 171.789 170.303 172.408 171.491 173.646C172.704 174.884 173.31 176.767 173.31 179.294V189.111C173.31 189.692 173.146 190.147 172.817 190.475C172.489 190.779 172.034 190.93 171.453 190.93C170.897 190.93 170.455 190.766 170.126 190.437C169.798 190.109 169.633 189.667 169.633 189.111V187.708C169.153 188.77 168.433 189.591 167.473 190.172C166.538 190.728 165.439 191.006 164.175 191.006C162.962 191.006 161.85 190.766 160.84 190.286C159.854 189.78 159.071 189.098 158.49 188.239C157.908 187.38 157.618 186.407 157.618 185.32C157.592 183.956 157.934 182.895 158.641 182.137C159.349 181.353 160.498 180.797 162.09 180.469C163.682 180.115 165.893 179.938 168.724 179.938H169.595V178.839C169.595 177.424 169.305 176.4 168.724 175.769C168.142 175.137 167.207 174.821 165.919 174.821C165.034 174.821 164.2 174.935 163.417 175.162C162.634 175.39 161.775 175.718 160.84 176.148C160.157 176.527 159.677 176.716 159.399 176.716C159.02 176.716 158.704 176.577 158.452 176.299C158.224 176.021 158.11 175.668 158.11 175.238C158.11 174.859 158.212 174.53 158.414 174.252C158.641 173.949 158.995 173.659 159.475 173.381C160.359 172.901 161.395 172.522 162.583 172.244C163.771 171.94 164.921 171.789 166.032 171.789ZM164.857 188.163C166.247 188.163 167.384 187.696 168.269 186.761C169.153 185.801 169.595 184.575 169.595 183.084V182.099H168.913C166.942 182.099 165.426 182.187 164.365 182.364C163.303 182.541 162.545 182.844 162.09 183.274C161.636 183.678 161.408 184.272 161.408 185.055C161.408 185.965 161.737 186.71 162.394 187.291C163.051 187.873 163.872 188.163 164.857 188.163ZM180.48 190.93C179.924 190.93 179.456 190.779 179.077 190.475C178.724 190.172 178.547 189.717 178.547 189.111V165.686C178.547 165.08 178.724 164.625 179.077 164.322C179.456 163.993 179.924 163.829 180.48 163.829C181.036 163.829 181.491 163.993 181.844 164.322C182.198 164.625 182.375 165.08 182.375 165.686V189.111C182.375 189.717 182.198 190.172 181.844 190.475C181.491 190.779 181.036 190.93 180.48 190.93ZM189.66 190.93C189.104 190.93 188.636 190.779 188.257 190.475C187.903 190.172 187.727 189.717 187.727 189.111V165.686C187.727 165.08 187.903 164.625 188.257 164.322C188.636 163.993 189.104 163.829 189.66 163.829C190.216 163.829 190.67 163.993 191.024 164.322C191.378 164.625 191.555 165.08 191.555 165.686V189.111C191.555 189.717 191.378 190.172 191.024 190.475C190.67 190.779 190.216 190.93 189.66 190.93Z" fill="#FEFEFE"/>
<path d="M3.07855 465.95H301.655V563.967H290.345V589.602L264.71 563.967H3.07855V465.95Z" fill="#4C12B3"/>
<path d="M290.449 602.507C272.537 602.507 258.016 601.124 258.016 599.418C258.016 597.712 272.537 596.329 290.449 596.329C308.361 596.329 322.882 597.712 322.882 599.418C322.882 601.124 308.361 602.507 290.449 602.507Z" fill="#E6E6E6"/>
<g clip-path="url(#clip2)">
<path d="M70 504C71.6562 504 73 502.656 73 501C73 499.344 71.6562 498 70 498C68.3437 498 67 499.344 67 501C67 502.656 68.3437 504 70 504ZM94 504C95.6562 504 97 502.656 97 501C97 499.344 95.6562 498 94 498C92.3437 498 91 499.344 91 501C91 502.656 92.3437 504 94 504ZM101.856 527.256L99.1062 520.381L96.5375 523.281L96.4125 524.419L98.1437 528.744C98.4562 529.525 99.2062 530 100 530C100.25 530 100.5 529.956 100.744 529.856C101.769 529.444 102.269 528.281 101.856 527.256ZM99.7187 514.144L98.5625 509.131C98.275 507.881 97.4 506.831 96.2187 506.325C95.0625 505.825 93.7812 505.906 92.7125 506.531C91.2937 507.369 90.2312 508.688 89.7062 510.244L89 512.363L88 513V507C88 506.45 87.55 506 87 506H77C76.45 506 76 506.45 76 507V513L74.9937 512.363L74.2875 510.244C73.7687 508.681 72.7 507.369 71.2812 506.531C70.2062 505.906 68.9312 505.825 67.775 506.325C66.5937 506.831 65.7187 507.881 65.4312 509.131L64.2812 514.144C63.9937 515.394 64.325 516.719 65.1812 517.688L69.3812 522.431L70.0125 528.219C70.125 529.237 70.9875 530 72 530C72.075 530 72.1437 529.994 72.2187 529.987C73.3187 529.869 74.1062 528.881 73.9875 527.781L73.3562 521.981C73.2625 521.169 72.925 520.413 72.3812 519.794L69.675 516.731L70.775 512.337L71.2 513.613C71.4562 514.394 71.9437 515.075 72.7312 515.65L75.925 517.681C76.2125 517.862 76.6812 517.969 77 517.994H87C87.3187 517.969 87.7875 517.862 88.075 517.681L91.2687 515.65C92.0562 515.075 92.5437 514.4 92.8 513.613L93.225 512.337L94.325 516.731L91.6187 519.794C91.075 520.413 90.7375 521.169 90.6437 521.981L90.0125 527.781C89.8937 528.881 90.6875 529.869 91.7812 529.987C91.8562 529.994 91.925 530 92 530C93.0062 530 93.875 529.244 93.9875 528.219L94.6187 522.431L98.8187 517.688C99.6687 516.719 100.006 515.394 99.7187 514.144ZM64.8937 520.381L62.1437 527.256C61.7312 528.281 62.2312 529.444 63.2562 529.856C64.3062 530.269 65.45 529.75 65.8562 528.744L67.5875 524.419L67.4625 523.281L64.8937 520.381Z" fill="#FEFEFE"/>
</g>
<path d="M119.767 526.142C119.332 526.142 118.983 526.009 118.719 525.745C118.454 525.481 118.322 525.122 118.322 524.669V507.45C118.322 507.016 118.445 506.676 118.69 506.431C118.955 506.167 119.313 506.034 119.767 506.034H126.592C128.706 506.034 130.349 506.554 131.519 507.592C132.69 508.63 133.275 510.103 133.275 512.01C133.275 513.898 132.69 515.371 131.519 516.428C130.349 517.485 128.706 518.014 126.592 518.014H121.239V524.669C121.239 525.122 121.107 525.481 120.843 525.745C120.597 526.009 120.239 526.142 119.767 526.142ZM126.28 515.663C129.074 515.663 130.472 514.445 130.472 512.01C130.472 509.593 129.074 508.385 126.28 508.385H121.239V515.663H126.28ZM143.43 511.897C144.336 511.84 144.789 512.227 144.789 513.058C144.789 513.473 144.686 513.785 144.478 513.992C144.27 514.2 143.912 514.323 143.402 514.36L142.552 514.445C141.363 514.559 140.475 514.974 139.89 515.692C139.324 516.409 139.041 517.277 139.041 518.297V524.782C139.041 525.235 138.908 525.575 138.644 525.802C138.38 526.028 138.04 526.142 137.625 526.142C137.209 526.142 136.86 526.028 136.577 525.802C136.312 525.575 136.18 525.235 136.18 524.782V513.256C136.18 512.822 136.312 512.491 136.577 512.265C136.86 512.019 137.209 511.897 137.625 511.897C138.002 511.897 138.314 512.019 138.559 512.265C138.823 512.491 138.956 512.812 138.956 513.228V514.587C139.333 513.756 139.881 513.124 140.598 512.69C141.316 512.255 142.127 512 143.034 511.925L143.43 511.897ZM152.279 526.198C150.919 526.198 149.72 525.906 148.682 525.32C147.662 524.735 146.869 523.904 146.303 522.828C145.756 521.733 145.482 520.468 145.482 519.033C145.482 517.58 145.756 516.315 146.303 515.238C146.869 514.143 147.662 513.303 148.682 512.718C149.72 512.133 150.919 511.84 152.279 511.84C153.638 511.84 154.827 512.133 155.847 512.718C156.885 513.303 157.678 514.143 158.226 515.238C158.792 516.315 159.075 517.58 159.075 519.033C159.075 520.468 158.792 521.733 158.226 522.828C157.678 523.904 156.885 524.735 155.847 525.32C154.827 525.906 153.638 526.198 152.279 526.198ZM152.279 523.933C153.544 523.933 154.506 523.517 155.167 522.687C155.847 521.856 156.187 520.638 156.187 519.033C156.187 517.447 155.847 516.239 155.167 515.408C154.488 514.559 153.525 514.134 152.279 514.134C151.033 514.134 150.07 514.559 149.39 515.408C148.71 516.239 148.37 517.447 148.37 519.033C148.37 520.638 148.701 521.856 149.362 522.687C150.041 523.517 151.014 523.933 152.279 523.933ZM173.56 505.893C173.994 505.893 174.343 506.016 174.608 506.261C174.872 506.506 175.004 506.837 175.004 507.252V524.754C175.004 525.188 174.872 525.528 174.608 525.773C174.362 526.019 174.022 526.142 173.588 526.142C173.154 526.142 172.805 526.019 172.54 525.773C172.295 525.528 172.172 525.188 172.172 524.754V523.621C171.757 524.452 171.153 525.094 170.36 525.547C169.567 525.981 168.651 526.198 167.613 526.198C166.423 526.198 165.356 525.896 164.412 525.292C163.487 524.688 162.76 523.838 162.232 522.743C161.722 521.648 161.467 520.393 161.467 518.977C161.467 517.542 161.722 516.286 162.232 515.21C162.76 514.134 163.487 513.303 164.412 512.718C165.337 512.133 166.404 511.84 167.613 511.84C168.651 511.84 169.557 512.067 170.331 512.52C171.124 512.954 171.728 513.577 172.144 514.389V507.196C172.144 506.799 172.266 506.488 172.512 506.261C172.776 506.016 173.125 505.893 173.56 505.893ZM168.292 523.933C169.519 523.933 170.473 523.508 171.153 522.658C171.832 521.809 172.172 520.6 172.172 519.033C172.172 517.466 171.832 516.258 171.153 515.408C170.492 514.559 169.538 514.134 168.292 514.134C167.046 514.134 166.074 514.559 165.375 515.408C164.696 516.239 164.356 517.428 164.356 518.977C164.356 520.525 164.705 521.743 165.404 522.63C166.102 523.498 167.065 523.933 168.292 523.933ZM189.697 511.897C190.131 511.897 190.471 512.019 190.717 512.265C190.981 512.51 191.113 512.85 191.113 513.284V524.811C191.113 525.207 190.981 525.528 190.717 525.773C190.452 526.019 190.103 526.142 189.669 526.142C189.272 526.142 188.951 526.028 188.706 525.802C188.46 525.556 188.338 525.235 188.338 524.839V523.763C187.903 524.556 187.299 525.16 186.525 525.575C185.77 525.991 184.92 526.198 183.976 526.198C180.616 526.198 178.935 524.348 178.935 520.648V513.284C178.935 512.85 179.058 512.51 179.304 512.265C179.568 512.019 179.927 511.897 180.38 511.897C180.814 511.897 181.154 512.019 181.399 512.265C181.664 512.51 181.796 512.85 181.796 513.284V520.619C181.796 521.733 182.022 522.554 182.475 523.083C182.929 523.612 183.627 523.876 184.571 523.876C185.685 523.876 186.572 523.517 187.233 522.8C187.913 522.082 188.253 521.129 188.253 519.94V513.284C188.253 512.869 188.385 512.539 188.649 512.293C188.914 512.029 189.263 511.897 189.697 511.897ZM201.035 526.198C199.694 526.198 198.514 525.906 197.495 525.32C196.494 524.735 195.71 523.904 195.144 522.828C194.596 521.752 194.323 520.506 194.323 519.09C194.323 517.655 194.606 516.39 195.172 515.295C195.758 514.2 196.569 513.35 197.608 512.746C198.646 512.142 199.836 511.84 201.176 511.84C201.894 511.84 202.611 511.944 203.328 512.152C204.065 512.359 204.716 512.642 205.283 513.001C205.887 513.416 206.189 513.898 206.189 514.445C206.189 514.766 206.104 515.04 205.934 515.267C205.764 515.474 205.547 515.578 205.283 515.578C205.113 515.578 204.943 515.54 204.773 515.465C204.603 515.371 204.386 515.238 204.121 515.068C203.649 514.766 203.206 514.54 202.79 514.389C202.394 514.219 201.912 514.134 201.346 514.134C200.062 514.134 199.062 514.568 198.344 515.437C197.646 516.305 197.296 517.513 197.296 519.062C197.296 520.61 197.646 521.809 198.344 522.658C199.043 523.489 200.034 523.904 201.318 523.904C201.884 523.904 202.384 523.819 202.819 523.649C203.253 523.48 203.697 523.253 204.15 522.97C204.357 522.838 204.565 522.724 204.773 522.63C204.98 522.536 205.169 522.488 205.339 522.488C205.604 522.488 205.821 522.602 205.991 522.828C206.16 523.036 206.245 523.3 206.245 523.621C206.245 523.885 206.17 524.131 206.019 524.357C205.887 524.565 205.651 524.782 205.311 525.009C204.744 525.386 204.084 525.679 203.328 525.887C202.573 526.094 201.809 526.198 201.035 526.198ZM215.629 523.961C216.045 523.999 216.337 524.112 216.507 524.301C216.696 524.471 216.79 524.716 216.79 525.037C216.79 525.415 216.639 525.707 216.337 525.915C216.054 526.104 215.629 526.179 215.063 526.142L214.298 526.085C212.769 525.972 211.627 525.509 210.872 524.697C210.116 523.867 209.739 522.649 209.739 521.044V514.389H208.04C207.209 514.389 206.793 514.021 206.793 513.284C206.793 512.944 206.897 512.68 207.105 512.491C207.332 512.284 207.643 512.18 208.04 512.18H209.739V509.263C209.739 508.829 209.861 508.489 210.107 508.243C210.371 507.998 210.721 507.875 211.155 507.875C211.589 507.875 211.938 507.998 212.203 508.243C212.467 508.489 212.599 508.829 212.599 509.263V512.18H215.403C215.799 512.18 216.101 512.284 216.309 512.491C216.536 512.68 216.649 512.944 216.649 513.284C216.649 513.643 216.536 513.917 216.309 514.106C216.101 514.294 215.799 514.389 215.403 514.389H212.599V521.242C212.599 522.13 212.778 522.781 213.137 523.196C213.515 523.612 214.081 523.848 214.836 523.904L215.629 523.961ZM220.289 526.142C219.874 526.142 219.524 526.028 219.241 525.802C218.977 525.575 218.845 525.235 218.845 524.782V513.284C218.845 512.831 218.977 512.491 219.241 512.265C219.524 512.019 219.874 511.897 220.289 511.897C220.704 511.897 221.044 512.019 221.309 512.265C221.573 512.491 221.705 512.831 221.705 513.284V524.782C221.705 525.235 221.573 525.575 221.309 525.802C221.044 526.028 220.704 526.142 220.289 526.142ZM220.289 509.121C219.742 509.121 219.307 508.97 218.986 508.668C218.665 508.366 218.505 507.97 218.505 507.479C218.505 506.988 218.665 506.601 218.986 506.318C219.307 506.016 219.742 505.864 220.289 505.864C220.818 505.864 221.243 506.016 221.563 506.318C221.903 506.601 222.073 506.988 222.073 507.479C222.073 507.97 221.913 508.366 221.592 508.668C221.271 508.97 220.837 509.121 220.289 509.121ZM235.531 512.746C235.644 512.463 235.804 512.255 236.012 512.123C236.239 511.991 236.475 511.925 236.72 511.925C237.079 511.925 237.39 512.048 237.655 512.293C237.938 512.539 238.079 512.831 238.079 513.171C238.079 513.36 238.042 513.539 237.966 513.709L232.557 525.179C232.425 525.481 232.217 525.717 231.934 525.887C231.67 526.038 231.386 526.113 231.084 526.113C230.782 526.113 230.49 526.038 230.206 525.887C229.942 525.717 229.744 525.481 229.612 525.179L224.203 513.709C224.127 513.558 224.089 513.379 224.089 513.171C224.089 512.831 224.24 512.539 224.542 512.293C224.844 512.048 225.184 511.925 225.562 511.925C226.109 511.925 226.515 512.189 226.78 512.718L231.169 522.46L235.531 512.746ZM242.276 526.142C241.86 526.142 241.511 526.028 241.228 525.802C240.964 525.575 240.831 525.235 240.831 524.782V513.284C240.831 512.831 240.964 512.491 241.228 512.265C241.511 512.019 241.86 511.897 242.276 511.897C242.691 511.897 243.031 512.019 243.295 512.265C243.56 512.491 243.692 512.831 243.692 513.284V524.782C243.692 525.235 243.56 525.575 243.295 525.802C243.031 526.028 242.691 526.142 242.276 526.142ZM242.276 509.121C241.728 509.121 241.294 508.97 240.973 508.668C240.652 508.366 240.492 507.97 240.492 507.479C240.492 506.988 240.652 506.601 240.973 506.318C241.294 506.016 241.728 505.864 242.276 505.864C242.804 505.864 243.229 506.016 243.55 506.318C243.89 506.601 244.06 506.988 244.06 507.479C244.06 507.97 243.899 508.366 243.579 508.668C243.258 508.97 242.823 509.121 242.276 509.121ZM254.846 523.961C255.261 523.999 255.554 524.112 255.724 524.301C255.913 524.471 256.007 524.716 256.007 525.037C256.007 525.415 255.856 525.707 255.554 525.915C255.271 526.104 254.846 526.179 254.279 526.142L253.515 526.085C251.986 525.972 250.843 525.509 250.088 524.697C249.333 523.867 248.955 522.649 248.955 521.044V514.389H247.256C246.425 514.389 246.01 514.021 246.01 513.284C246.01 512.944 246.114 512.68 246.322 512.491C246.548 512.284 246.86 512.18 247.256 512.18H248.955V509.263C248.955 508.829 249.078 508.489 249.323 508.243C249.588 507.998 249.937 507.875 250.371 507.875C250.806 507.875 251.155 507.998 251.419 508.243C251.683 508.489 251.816 508.829 251.816 509.263V512.18H254.619C255.016 512.18 255.318 512.284 255.526 512.491C255.752 512.68 255.865 512.944 255.865 513.284C255.865 513.643 255.752 513.917 255.526 514.106C255.318 514.294 255.016 514.389 254.619 514.389H251.816V521.242C251.816 522.13 251.995 522.781 252.354 523.196C252.731 523.612 253.298 523.848 254.053 523.904L254.846 523.961ZM268.082 512.746C268.195 512.463 268.356 512.255 268.563 512.123C268.79 511.991 269.026 511.925 269.271 511.925C269.63 511.925 269.942 512.048 270.206 512.293C270.489 512.539 270.631 512.831 270.631 513.171C270.631 513.36 270.593 513.539 270.517 513.709L262.645 530.418C262.531 530.682 262.361 530.88 262.135 531.013C261.927 531.164 261.701 531.239 261.455 531.239C261.115 531.239 260.804 531.126 260.521 530.899C260.256 530.673 260.124 530.39 260.124 530.05C260.124 529.899 260.171 529.71 260.266 529.483L262.22 525.32L256.754 513.709C256.678 513.558 256.641 513.388 256.641 513.199C256.641 512.841 256.792 512.539 257.094 512.293C257.396 512.048 257.736 511.925 258.113 511.925C258.68 511.925 259.086 512.189 259.331 512.718L263.721 522.46L268.082 512.746Z" fill="#FEFEFE"/>
<path d="M674.665 414.781H427.906V495.788H437.253V516.974L458.439 495.788H674.665V414.781Z" fill="#4C12B3"/>
<path d="M437.167 527.639C451.97 527.639 463.971 526.496 463.971 525.087C463.971 523.677 451.97 522.534 437.167 522.534C422.363 522.534 410.363 523.677 410.363 525.087C410.363 526.496 422.363 527.639 437.167 527.639Z" fill="#E6E6E6"/>
<path d="M517.016 469.226C515.11 469.226 513.448 468.82 512.032 468.009C510.616 467.178 509.531 465.998 508.775 464.469C508.02 462.92 507.643 461.098 507.643 459.003C507.643 456.926 508.02 455.123 508.775 453.594C509.531 452.046 510.616 450.866 512.032 450.054C513.448 449.223 515.11 448.808 517.016 448.808C518.263 448.808 519.443 449.006 520.556 449.402C521.67 449.78 522.643 450.337 523.473 451.073C523.832 451.356 524.012 451.734 524.012 452.206C524.012 452.546 523.917 452.838 523.728 453.084C523.54 453.31 523.313 453.424 523.049 453.424C522.728 453.424 522.416 453.301 522.114 453.056C521.208 452.376 520.377 451.904 519.622 451.64C518.886 451.356 518.045 451.215 517.101 451.215C515.025 451.215 513.429 451.885 512.315 453.226C511.201 454.566 510.644 456.492 510.644 459.003C510.644 461.533 511.201 463.468 512.315 464.808C513.429 466.149 515.025 466.819 517.101 466.819C518.008 466.819 518.829 466.678 519.565 466.394C520.32 466.111 521.17 465.639 522.114 464.978C522.492 464.733 522.803 464.61 523.049 464.61C523.313 464.61 523.54 464.733 523.728 464.978C523.917 465.205 524.012 465.488 524.012 465.828C524.012 466.3 523.832 466.678 523.473 466.961C522.643 467.697 521.67 468.263 520.556 468.66C519.443 469.038 518.263 469.226 517.016 469.226ZM532.875 469.198C531.516 469.198 530.317 468.905 529.279 468.32C528.259 467.735 527.466 466.904 526.9 465.828C526.352 464.733 526.079 463.468 526.079 462.033C526.079 460.579 526.352 459.314 526.9 458.238C527.466 457.143 528.259 456.303 529.279 455.718C530.317 455.132 531.516 454.84 532.875 454.84C534.235 454.84 535.424 455.132 536.444 455.718C537.482 456.303 538.275 457.143 538.823 458.238C539.389 459.314 539.672 460.579 539.672 462.033C539.672 463.468 539.389 464.733 538.823 465.828C538.275 466.904 537.482 467.735 536.444 468.32C535.424 468.905 534.235 469.198 532.875 469.198ZM532.875 466.932C534.14 466.932 535.103 466.517 535.764 465.686C536.444 464.856 536.784 463.638 536.784 462.033C536.784 460.447 536.444 459.239 535.764 458.408C535.084 457.558 534.122 457.134 532.875 457.134C531.629 457.134 530.666 457.558 529.987 458.408C529.307 459.239 528.967 460.447 528.967 462.033C528.967 463.638 529.298 464.856 529.958 465.686C530.638 466.517 531.61 466.932 532.875 466.932ZM550.305 454.84C553.609 454.84 555.261 456.699 555.261 460.419V467.782C555.261 468.216 555.129 468.556 554.865 468.802C554.619 469.028 554.27 469.141 553.817 469.141C553.383 469.141 553.033 469.019 552.769 468.773C552.523 468.528 552.401 468.197 552.401 467.782V460.56C552.401 459.39 552.165 458.531 551.693 457.983C551.24 457.436 550.522 457.162 549.54 457.162C548.389 457.162 547.464 457.521 546.765 458.238C546.067 458.956 545.717 459.918 545.717 461.127V467.782C545.717 468.197 545.585 468.528 545.321 468.773C545.075 469.019 544.735 469.141 544.301 469.141C543.867 469.141 543.518 469.019 543.253 468.773C542.989 468.528 542.857 468.197 542.857 467.782V456.256C542.857 455.859 542.989 455.538 543.253 455.293C543.537 455.029 543.886 454.896 544.301 454.896C544.717 454.896 545.047 455.019 545.292 455.265C545.538 455.51 545.661 455.831 545.661 456.227V457.389C546.114 456.558 546.746 455.925 547.558 455.491C548.37 455.057 549.286 454.84 550.305 454.84ZM565.688 451.215C564.744 451.29 564.045 451.592 563.592 452.121C563.139 452.631 562.912 453.386 562.912 454.387V455.18H565.716C566.113 455.18 566.415 455.283 566.622 455.491C566.849 455.68 566.962 455.944 566.962 456.284C566.962 456.624 566.849 456.898 566.622 457.105C566.415 457.294 566.113 457.389 565.716 457.389H562.912V467.754C562.912 468.207 562.771 468.556 562.488 468.802C562.223 469.028 561.883 469.141 561.468 469.141C561.053 469.141 560.713 469.028 560.449 468.802C560.184 468.556 560.052 468.207 560.052 467.754V457.389H558.353C557.956 457.389 557.645 457.294 557.418 457.105C557.211 456.898 557.107 456.624 557.107 456.284C557.107 455.944 557.211 455.68 557.418 455.491C557.645 455.283 557.956 455.18 558.353 455.18H560.052V454.811C560.052 453.074 560.496 451.715 561.383 450.733C562.27 449.733 563.526 449.176 565.15 449.062L565.886 449.006C566.49 448.968 566.924 449.034 567.189 449.204C567.472 449.374 567.613 449.648 567.613 450.025C567.613 450.686 567.217 451.064 566.424 451.158L565.688 451.215ZM579.534 465.516C579.798 465.516 580.015 465.62 580.185 465.828C580.355 466.036 580.44 466.3 580.44 466.621C580.44 467.168 580.1 467.631 579.42 468.009C578.76 468.386 578.033 468.679 577.24 468.886C576.466 469.094 575.72 469.198 575.003 469.198C572.812 469.198 571.085 468.566 569.82 467.301C568.555 466.017 567.923 464.27 567.923 462.061C567.923 460.645 568.196 459.39 568.744 458.295C569.31 457.2 570.094 456.35 571.094 455.746C572.114 455.142 573.266 454.84 574.549 454.84C576.4 454.84 577.863 455.434 578.939 456.624C580.015 457.813 580.553 459.418 580.553 461.438C580.553 462.194 580.213 462.571 579.534 462.571H570.783C570.972 465.498 572.378 466.961 575.003 466.961C575.701 466.961 576.305 466.866 576.815 466.678C577.325 466.489 577.863 466.243 578.429 465.941C578.486 465.903 578.637 465.828 578.882 465.715C579.147 465.582 579.364 465.516 579.534 465.516ZM574.606 456.935C573.511 456.935 572.633 457.285 571.972 457.983C571.312 458.682 570.915 459.664 570.783 460.929H578.089C578.033 459.645 577.702 458.663 577.098 457.983C576.513 457.285 575.682 456.935 574.606 456.935ZM590.955 454.896C591.861 454.84 592.314 455.227 592.314 456.058C592.314 456.473 592.211 456.784 592.003 456.992C591.795 457.2 591.437 457.322 590.927 457.36L590.077 457.445C588.888 457.558 588 457.974 587.415 458.691C586.849 459.409 586.566 460.277 586.566 461.297V467.782C586.566 468.235 586.433 468.575 586.169 468.802C585.905 469.028 585.565 469.141 585.15 469.141C584.734 469.141 584.385 469.028 584.102 468.802C583.837 468.575 583.705 468.235 583.705 467.782V456.256C583.705 455.822 583.837 455.491 584.102 455.265C584.385 455.019 584.734 454.896 585.15 454.896C585.527 454.896 585.839 455.019 586.084 455.265C586.348 455.491 586.481 455.812 586.481 456.227V457.587C586.858 456.756 587.406 456.124 588.123 455.689C588.841 455.255 589.652 455 590.559 454.925L590.955 454.896ZM604.618 465.516C604.882 465.516 605.099 465.62 605.269 465.828C605.439 466.036 605.524 466.3 605.524 466.621C605.524 467.168 605.184 467.631 604.505 468.009C603.844 468.386 603.117 468.679 602.324 468.886C601.55 469.094 600.804 469.198 600.087 469.198C597.897 469.198 596.169 468.566 594.904 467.301C593.639 466.017 593.007 464.27 593.007 462.061C593.007 460.645 593.281 459.39 593.828 458.295C594.394 457.2 595.178 456.35 596.179 455.746C597.198 455.142 598.35 454.84 599.634 454.84C601.484 454.84 602.947 455.434 604.023 456.624C605.099 457.813 605.638 459.418 605.638 461.438C605.638 462.194 605.298 462.571 604.618 462.571H595.867C596.056 465.498 597.462 466.961 600.087 466.961C600.785 466.961 601.39 466.866 601.899 466.678C602.409 466.489 602.947 466.243 603.514 465.941C603.57 465.903 603.721 465.828 603.967 465.715C604.231 465.582 604.448 465.516 604.618 465.516ZM599.69 456.935C598.595 456.935 597.717 457.285 597.057 457.983C596.396 458.682 595.999 459.664 595.867 460.929H603.174C603.117 459.645 602.787 458.663 602.182 457.983C601.597 457.285 600.766 456.935 599.69 456.935ZM616.238 454.84C619.542 454.84 621.194 456.699 621.194 460.419V467.782C621.194 468.216 621.061 468.556 620.797 468.802C620.552 469.028 620.202 469.141 619.749 469.141C619.315 469.141 618.966 469.019 618.701 468.773C618.456 468.528 618.333 468.197 618.333 467.782V460.56C618.333 459.39 618.097 458.531 617.625 457.983C617.172 457.436 616.455 457.162 615.473 457.162C614.321 457.162 613.396 457.521 612.698 458.238C611.999 458.956 611.65 459.918 611.65 461.127V467.782C611.65 468.197 611.518 468.528 611.253 468.773C611.008 469.019 610.668 469.141 610.234 469.141C609.8 469.141 609.45 469.019 609.186 468.773C608.922 468.528 608.789 468.197 608.789 467.782V456.256C608.789 455.859 608.922 455.538 609.186 455.293C609.469 455.029 609.818 454.896 610.234 454.896C610.649 454.896 610.98 455.019 611.225 455.265C611.47 455.51 611.593 455.831 611.593 456.227V457.389C612.046 456.558 612.679 455.925 613.491 455.491C614.302 455.057 615.218 454.84 616.238 454.84ZM631.026 469.198C629.685 469.198 628.505 468.905 627.486 468.32C626.485 467.735 625.701 466.904 625.135 465.828C624.587 464.752 624.314 463.506 624.314 462.09C624.314 460.655 624.597 459.39 625.163 458.295C625.749 457.2 626.56 456.35 627.599 455.746C628.637 455.142 629.827 454.84 631.167 454.84C631.885 454.84 632.602 454.944 633.319 455.151C634.056 455.359 634.707 455.642 635.274 456.001C635.878 456.416 636.18 456.898 636.18 457.445C636.18 457.766 636.095 458.04 635.925 458.266C635.755 458.474 635.538 458.578 635.274 458.578C635.104 458.578 634.934 458.54 634.764 458.465C634.594 458.37 634.377 458.238 634.112 458.068C633.64 457.766 633.197 457.54 632.781 457.389C632.385 457.219 631.903 457.134 631.337 457.134C630.053 457.134 629.053 457.568 628.335 458.436C627.637 459.305 627.287 460.513 627.287 462.061C627.287 463.61 627.637 464.808 628.335 465.658C629.034 466.489 630.025 466.904 631.309 466.904C631.875 466.904 632.375 466.819 632.81 466.649C633.244 466.479 633.688 466.253 634.141 465.97C634.348 465.837 634.556 465.724 634.764 465.63C634.971 465.535 635.16 465.488 635.33 465.488C635.594 465.488 635.812 465.601 635.982 465.828C636.151 466.036 636.236 466.3 636.236 466.621C636.236 466.885 636.161 467.131 636.01 467.357C635.878 467.565 635.642 467.782 635.302 468.009C634.735 468.386 634.075 468.679 633.319 468.886C632.564 469.094 631.8 469.198 631.026 469.198ZM649.615 465.516C649.879 465.516 650.096 465.62 650.266 465.828C650.436 466.036 650.521 466.3 650.521 466.621C650.521 467.168 650.181 467.631 649.501 468.009C648.841 468.386 648.114 468.679 647.321 468.886C646.547 469.094 645.801 469.198 645.083 469.198C642.893 469.198 641.166 468.566 639.901 467.301C638.636 466.017 638.003 464.27 638.003 462.061C638.003 460.645 638.277 459.39 638.825 458.295C639.391 457.2 640.175 456.35 641.175 455.746C642.195 455.142 643.347 454.84 644.63 454.84C646.481 454.84 647.944 455.434 649.02 456.624C650.096 457.813 650.634 459.418 650.634 461.438C650.634 462.194 650.294 462.571 649.615 462.571H640.864C641.053 465.498 642.459 466.961 645.083 466.961C645.782 466.961 646.386 466.866 646.896 466.678C647.406 466.489 647.944 466.243 648.51 465.941C648.567 465.903 648.718 465.828 648.963 465.715C649.228 465.582 649.445 465.516 649.615 465.516ZM644.687 456.935C643.592 456.935 642.714 457.285 642.053 457.983C641.392 458.682 640.996 459.664 640.864 460.929H648.17C648.114 459.645 647.783 458.663 647.179 457.983C646.594 457.285 645.763 456.935 644.687 456.935Z" fill="#FEFEFE"/>
<path d="M455 456C457.206 456 459 454.206 459 452C459 449.794 457.206 448 455 448C452.794 448 451 449.794 451 452C451 454.206 452.794 456 455 456ZM483 456C485.206 456 487 454.206 487 452C487 449.794 485.206 448 483 448C480.794 448 479 449.794 479 452C479 454.206 480.794 456 483 456ZM485 458H481C479.9 458 478.906 458.444 478.181 459.162C480.7 460.544 482.487 463.037 482.875 466H487C488.106 466 489 465.106 489 464V462C489 459.794 487.206 458 485 458ZM469 458C472.869 458 476 454.869 476 451C476 447.131 472.869 444 469 444C465.131 444 462 447.131 462 451C462 454.869 465.131 458 469 458ZM473.8 460H473.281C471.981 460.625 470.538 461 469 461C467.462 461 466.025 460.625 464.719 460H464.2C460.225 460 457 463.225 457 467.2V469C457 470.656 458.344 472 460 472H478C479.656 472 481 470.656 481 469V467.2C481 463.225 477.775 460 473.8 460ZM459.819 459.162C459.094 458.444 458.1 458 457 458H453C450.794 458 449 459.794 449 462V464C449 465.106 449.894 466 451 466H455.119C455.513 463.037 457.3 460.544 459.819 459.162Z" fill="#FEFEFE"/>
<path d="M72.171 316.442H258.781V377.703H251.712V393.725L235.691 377.703H72.171V316.442Z" fill="#4C12B3"/>
<path d="M251.777 401.79C240.582 401.79 231.507 400.926 231.507 399.86C231.507 398.793 240.582 397.929 251.777 397.929C262.973 397.929 272.048 398.793 272.048 399.86C272.048 400.926 262.973 401.79 251.777 401.79Z" fill="#E6E6E6"/>
<path d="M167.016 359.227C165.11 359.227 163.448 358.821 162.032 358.009C160.616 357.178 159.531 355.998 158.775 354.469C158.02 352.921 157.643 351.099 157.643 349.003C157.643 346.926 158.02 345.123 158.775 343.594C159.531 342.046 160.616 340.866 162.032 340.054C163.448 339.223 165.11 338.808 167.016 338.808C168.263 338.808 169.443 339.006 170.556 339.403C171.67 339.78 172.643 340.337 173.473 341.074C173.832 341.357 174.012 341.734 174.012 342.206C174.012 342.546 173.917 342.839 173.728 343.084C173.54 343.311 173.313 343.424 173.049 343.424C172.728 343.424 172.416 343.302 172.114 343.056C171.208 342.376 170.377 341.904 169.622 341.64C168.886 341.357 168.045 341.215 167.101 341.215C165.025 341.215 163.429 341.886 162.315 343.226C161.201 344.566 160.644 346.492 160.644 349.003C160.644 351.533 161.201 353.468 162.315 354.809C163.429 356.149 165.025 356.82 167.101 356.82C168.008 356.82 168.829 356.678 169.565 356.395C170.32 356.112 171.17 355.64 172.114 354.979C172.492 354.733 172.803 354.611 173.049 354.611C173.313 354.611 173.54 354.733 173.728 354.979C173.917 355.205 174.012 355.489 174.012 355.828C174.012 356.3 173.832 356.678 173.473 356.961C172.643 357.698 171.67 358.264 170.556 358.66C169.443 359.038 168.263 359.227 167.016 359.227ZM184.625 344.84C187.91 344.84 189.552 346.7 189.552 350.419V357.782C189.552 358.198 189.42 358.528 189.156 358.774C188.892 359.019 188.542 359.142 188.108 359.142C187.674 359.142 187.325 359.019 187.06 358.774C186.815 358.528 186.692 358.198 186.692 357.782V350.448C186.692 349.315 186.456 348.484 185.984 347.955C185.531 347.427 184.813 347.162 183.832 347.162C182.68 347.162 181.755 347.521 181.056 348.239C180.358 348.956 180.009 349.919 180.009 351.127V357.782C180.009 358.198 179.876 358.528 179.612 358.774C179.367 359.019 179.027 359.142 178.593 359.142C178.158 359.142 177.809 359.019 177.545 358.774C177.28 358.528 177.148 358.198 177.148 357.782V340.252C177.148 339.837 177.28 339.507 177.545 339.261C177.828 339.016 178.187 338.893 178.621 338.893C179.036 338.893 179.367 339.016 179.612 339.261C179.876 339.488 180.009 339.799 180.009 340.196V347.276C180.481 346.483 181.113 345.879 181.906 345.463C182.699 345.048 183.605 344.84 184.625 344.84ZM199.271 344.84C201.102 344.84 202.462 345.303 203.349 346.228C204.255 347.153 204.708 348.56 204.708 350.448V357.782C204.708 358.217 204.586 358.557 204.34 358.802C204.095 359.029 203.755 359.142 203.321 359.142C202.905 359.142 202.575 359.019 202.33 358.774C202.084 358.528 201.961 358.198 201.961 357.782V356.735C201.603 357.528 201.065 358.141 200.347 358.575C199.649 358.991 198.827 359.198 197.883 359.198C196.977 359.198 196.146 359.019 195.391 358.66C194.655 358.283 194.07 357.773 193.635 357.131C193.201 356.489 192.984 355.762 192.984 354.95C192.965 353.931 193.22 353.138 193.749 352.572C194.277 351.986 195.136 351.571 196.326 351.326C197.515 351.061 199.167 350.929 201.282 350.929H201.933V350.108C201.933 349.05 201.716 348.286 201.282 347.814C200.847 347.342 200.149 347.106 199.186 347.106C198.525 347.106 197.902 347.191 197.317 347.361C196.732 347.531 196.09 347.776 195.391 348.097C194.881 348.38 194.523 348.522 194.315 348.522C194.032 348.522 193.796 348.418 193.607 348.21C193.437 348.003 193.352 347.738 193.352 347.417C193.352 347.134 193.428 346.889 193.579 346.681C193.749 346.454 194.013 346.237 194.372 346.03C195.032 345.671 195.806 345.388 196.694 345.18C197.581 344.954 198.44 344.84 199.271 344.84ZM198.393 357.074C199.431 357.074 200.281 356.725 200.942 356.027C201.603 355.309 201.933 354.394 201.933 353.28V352.543H201.423C199.951 352.543 198.818 352.609 198.025 352.742C197.232 352.874 196.666 353.1 196.326 353.421C195.986 353.723 195.816 354.167 195.816 354.752C195.816 355.432 196.061 355.989 196.552 356.423C197.043 356.857 197.657 357.074 198.393 357.074ZM215.389 356.961C215.805 356.999 216.097 357.112 216.267 357.301C216.456 357.471 216.551 357.716 216.551 358.037C216.551 358.415 216.4 358.708 216.097 358.915C215.814 359.104 215.389 359.18 214.823 359.142L214.058 359.085C212.529 358.972 211.387 358.509 210.632 357.698C209.877 356.867 209.499 355.649 209.499 354.044V347.389H207.8C206.969 347.389 206.554 347.021 206.554 346.285C206.554 345.945 206.657 345.68 206.865 345.492C207.092 345.284 207.403 345.18 207.8 345.18H209.499V342.263C209.499 341.829 209.622 341.489 209.867 341.244C210.131 340.998 210.481 340.875 210.915 340.875C211.349 340.875 211.698 340.998 211.963 341.244C212.227 341.489 212.359 341.829 212.359 342.263V345.18H215.163C215.559 345.18 215.861 345.284 216.069 345.492C216.296 345.68 216.409 345.945 216.409 346.285C216.409 346.643 216.296 346.917 216.069 347.106C215.861 347.295 215.559 347.389 215.163 347.389H212.359V354.242C212.359 355.13 212.539 355.781 212.897 356.197C213.275 356.612 213.841 356.848 214.597 356.905L215.389 356.961Z" fill="#FEFEFE"/>
<path d="M134.667 342C134.667 337.396 129.818 333.667 123.833 333.667C117.849 333.667 113 337.396 113 342C113 343.787 113.734 345.433 114.979 346.792C114.281 348.365 113.13 349.615 113.115 349.631C113 349.75 112.969 349.927 113.036 350.084C113.104 350.24 113.25 350.334 113.417 350.334C115.323 350.334 116.901 349.693 118.036 349.032C119.714 349.849 121.698 350.334 123.833 350.334C129.818 350.334 134.667 346.604 134.667 342ZM141.021 353.459C142.266 352.104 143 350.453 143 348.667C143 345.183 140.214 342.198 136.266 340.953C136.312 341.297 136.333 341.646 136.333 342C136.333 347.516 130.724 352 123.833 352C123.271 352 122.724 351.959 122.182 351.901C123.823 354.896 127.677 357 132.167 357C134.302 357 136.286 356.521 137.964 355.698C139.099 356.36 140.677 357 142.583 357C142.75 357 142.901 356.901 142.964 356.75C143.031 356.599 143 356.422 142.885 356.297C142.87 356.282 141.719 355.037 141.021 353.459Z" fill="#FEFEFE"/>
<path d="M610.24 202.112H423.63V263.373H430.698V279.395L446.72 263.373H610.24V202.112Z" fill="#4C12B3"/>
<path d="M430.633 287.46C441.828 287.46 450.904 286.596 450.904 285.53C450.904 284.463 441.828 283.599 430.633 283.599C419.438 283.599 410.363 284.463 410.363 285.53C410.363 286.596 419.438 287.46 430.633 287.46Z" fill="#E6E6E6"/>
<path d="M520.907 224.657C521.152 224.129 521.558 223.864 522.125 223.864C522.502 223.864 522.842 223.997 523.144 224.261C523.446 224.506 523.597 224.808 523.597 225.167C523.597 225.299 523.55 225.479 523.456 225.705L515.47 243.207C515.337 243.509 515.13 243.745 514.847 243.915C514.563 244.085 514.261 244.17 513.94 244.17C513.619 244.17 513.308 244.085 513.006 243.915C512.723 243.745 512.515 243.509 512.383 243.207L504.425 225.705C504.33 225.479 504.283 225.299 504.283 225.167C504.283 224.79 504.434 224.478 504.736 224.233C505.057 223.987 505.407 223.864 505.784 223.864C506.369 223.864 506.785 224.129 507.03 224.657L513.969 240.205L520.907 224.657ZM528.722 244.142C528.307 244.142 527.957 244.028 527.674 243.802C527.41 243.575 527.278 243.235 527.278 242.782V231.284C527.278 230.831 527.41 230.491 527.674 230.265C527.957 230.019 528.307 229.897 528.722 229.897C529.137 229.897 529.477 230.019 529.742 230.265C530.006 230.491 530.138 230.831 530.138 231.284V242.782C530.138 243.235 530.006 243.575 529.742 243.802C529.477 244.028 529.137 244.142 528.722 244.142ZM528.722 227.121C528.175 227.121 527.74 226.97 527.419 226.668C527.098 226.366 526.938 225.97 526.938 225.479C526.938 224.988 527.098 224.601 527.419 224.318C527.74 224.016 528.175 223.864 528.722 223.864C529.251 223.864 529.675 224.016 529.996 224.318C530.336 224.601 530.506 224.988 530.506 225.479C530.506 225.97 530.346 226.366 530.025 226.668C529.704 226.97 529.27 227.121 528.722 227.121ZM545.436 223.893C545.87 223.893 546.22 224.016 546.484 224.261C546.748 224.506 546.88 224.837 546.88 225.252V242.754C546.88 243.188 546.748 243.528 546.484 243.773C546.239 244.019 545.899 244.142 545.464 244.142C545.03 244.142 544.681 244.019 544.417 243.773C544.171 243.528 544.048 243.188 544.048 242.754V241.621C543.633 242.452 543.029 243.094 542.236 243.547C541.443 243.981 540.527 244.198 539.489 244.198C538.3 244.198 537.233 243.896 536.289 243.292C535.364 242.688 534.637 241.838 534.108 240.743C533.598 239.648 533.344 238.393 533.344 236.977C533.344 235.542 533.598 234.286 534.108 233.21C534.637 232.134 535.364 231.303 536.289 230.718C537.214 230.133 538.281 229.84 539.489 229.84C540.527 229.84 541.434 230.067 542.208 230.52C543.001 230.954 543.605 231.577 544.02 232.389V225.196C544.02 224.799 544.143 224.488 544.388 224.261C544.653 224.016 545.002 223.893 545.436 223.893ZM540.169 241.933C541.396 241.933 542.349 241.508 543.029 240.658C543.709 239.809 544.048 238.6 544.048 237.033C544.048 235.466 543.709 234.258 543.029 233.408C542.368 232.559 541.415 232.134 540.169 232.134C538.923 232.134 537.95 232.559 537.252 233.408C536.572 234.239 536.232 235.428 536.232 236.977C536.232 238.525 536.581 239.743 537.28 240.63C537.979 241.498 538.941 241.933 540.169 241.933ZM561.687 240.517C561.951 240.517 562.168 240.62 562.338 240.828C562.508 241.036 562.593 241.3 562.593 241.621C562.593 242.169 562.253 242.631 561.573 243.009C560.913 243.386 560.186 243.679 559.393 243.887C558.619 244.094 557.873 244.198 557.156 244.198C554.965 244.198 553.238 243.566 551.973 242.301C550.708 241.017 550.076 239.271 550.076 237.062C550.076 235.646 550.349 234.39 550.897 233.295C551.463 232.2 552.247 231.35 553.247 230.746C554.267 230.142 555.419 229.84 556.702 229.84C558.553 229.84 560.016 230.435 561.092 231.624C562.168 232.814 562.706 234.418 562.706 236.439C562.706 237.194 562.366 237.571 561.687 237.571H552.936C553.125 240.498 554.531 241.961 557.156 241.961C557.854 241.961 558.458 241.867 558.968 241.678C559.478 241.489 560.016 241.244 560.582 240.941C560.639 240.904 560.79 240.828 561.035 240.715C561.3 240.583 561.517 240.517 561.687 240.517ZM556.759 231.936C555.664 231.936 554.786 232.285 554.125 232.984C553.464 233.682 553.068 234.664 552.936 235.929H560.242C560.186 234.645 559.855 233.663 559.251 232.984C558.666 232.285 557.835 231.936 556.759 231.936ZM571.862 244.198C570.503 244.198 569.304 243.906 568.265 243.32C567.246 242.735 566.453 241.904 565.887 240.828C565.339 239.733 565.065 238.468 565.065 237.033C565.065 235.58 565.339 234.315 565.887 233.238C566.453 232.143 567.246 231.303 568.265 230.718C569.304 230.133 570.503 229.84 571.862 229.84C573.221 229.84 574.411 230.133 575.43 230.718C576.469 231.303 577.262 232.143 577.809 233.238C578.376 234.315 578.659 235.58 578.659 237.033C578.659 238.468 578.376 239.733 577.809 240.828C577.262 241.904 576.469 242.735 575.43 243.32C574.411 243.906 573.221 244.198 571.862 244.198ZM571.862 241.933C573.127 241.933 574.09 241.517 574.751 240.687C575.43 239.856 575.77 238.638 575.77 237.033C575.77 235.447 575.43 234.239 574.751 233.408C574.071 232.559 573.108 232.134 571.862 232.134C570.616 232.134 569.653 232.559 568.973 233.408C568.294 234.239 567.954 235.447 567.954 237.033C567.954 238.638 568.284 239.856 568.945 240.687C569.625 241.517 570.597 241.933 571.862 241.933Z" fill="#FEFEFE"/>
<path d="M479.51 224.333H464.49C463.115 224.333 462 225.448 462 226.823V241.844C462 243.219 463.115 244.333 464.49 244.333H479.51C480.885 244.333 482 243.219 482 241.844V226.823C482 225.448 480.885 224.333 479.51 224.333ZM489.375 226.297L483.667 230.234V238.432L489.375 242.365C490.479 243.125 492 242.349 492 241.021V227.641C492 226.318 490.484 225.536 489.375 226.297Z" fill="#FEFEFE"/>
<defs>
<clipPath id="clip0">
<rect width="95.9409" height="142.344" fill="white" transform="translate(297.632 278.865)"/>
</clipPath>
<clipPath id="clip1">
<rect width="31.9803" height="31.9803" fill="white" transform="translate(87.9532 157.538)"/>
</clipPath>
<clipPath id="clip2">
<rect width="40" height="32" fill="white" transform="translate(62 498)"/>
</clipPath>
</defs>
</svg>
