<svg width="627" height="578" viewBox="0 0 627 578" fill="none" xmlns="http://www.w3.org/2000/svg">
<path opacity="0.1" d="M6.60498 223.775C16.2731 260.47 36.7399 292.19 69.0858 307.565C136.306 339.518 287.905 323.04 401.049 304.104C458.221 294.568 510.115 268.224 548.376 229.314L6.60498 223.775Z" fill="#640DFF"/>
<path opacity="0.1" d="M599.919 51.0602H537.839C536.416 51.0602 535.051 50.5582 534.045 49.6646C533.039 48.771 532.474 47.559 532.474 46.2953C532.474 45.0315 533.039 43.8195 534.045 42.9259C535.051 42.0323 536.416 41.5303 537.839 41.5303H548.571C547.148 41.5303 545.783 41.0283 544.777 40.1347C543.771 39.2411 543.205 38.0291 543.205 36.7654C543.205 35.5016 543.771 34.2896 544.777 33.396C545.783 32.5024 547.148 32.0004 548.571 32.0004H540.908C539.485 32.0004 538.12 31.4984 537.114 30.6048C536.107 29.7112 535.542 28.4992 535.542 27.2355C535.542 25.9718 536.107 24.7598 537.114 23.8662C538.12 22.9726 539.485 22.4705 540.908 22.4705H573.31C566.12 19.5033 557.716 17.3916 548.037 16.2838C459.687 6.20497 428.143 12.8714 417.016 19.7456C403.288 28.2023 387.972 34.4237 371.605 37.4206C317.093 47.4055 215.149 59.423 122.751 33.5731C76.8271 20.7149 42.6934 42.4353 22.2378 78.7151H610.696C609.927 68.1715 607.627 58.4388 603.406 49.9129C602.436 50.6541 601.199 51.0613 599.919 51.0602Z" fill="#640DFF"/>
<path opacity="0.1" d="M1.33655 147.195C-1.04812 168.535 -0.239121 190.062 3.74245 211.214L548.788 228.914C563.961 213.415 576.7 196.164 586.659 177.629L1.33655 147.195ZM216.909 192.866H206.177C207.6 192.866 208.965 193.368 209.971 194.262C210.978 195.155 211.543 196.367 211.543 197.631C211.543 198.895 210.978 200.107 209.971 201C208.965 201.894 207.6 202.396 206.177 202.396H144.097C142.674 202.396 141.309 201.894 140.303 201C139.297 200.107 138.731 198.895 138.731 197.631C138.731 196.367 139.297 195.155 140.303 194.262C141.309 193.368 142.674 192.866 144.097 192.866H154.829C153.406 192.866 152.041 192.364 151.035 191.471C150.029 190.577 149.463 189.365 149.463 188.101C149.463 186.837 150.029 185.626 151.035 184.732C152.041 183.838 153.406 183.336 154.829 183.336H147.166C145.743 183.336 144.378 182.834 143.372 181.941C142.365 181.047 141.8 179.835 141.8 178.571C141.8 177.308 142.365 176.096 143.372 175.202C144.378 174.308 145.743 173.806 147.166 173.806H209.246C210.669 173.806 212.034 174.308 213.04 175.202C214.046 176.096 214.612 177.308 214.612 178.571C214.612 179.835 214.046 181.047 213.04 181.941C212.034 182.834 210.669 183.336 209.246 183.336H216.909C218.332 183.336 219.697 183.838 220.703 184.732C221.71 185.626 222.275 186.837 222.275 188.101C222.275 189.365 221.71 190.577 220.703 191.471C219.697 192.364 218.332 192.866 216.909 192.866V192.866Z" fill="#640DFF"/>
<path opacity="0.1" d="M610.723 79.0415L15.6605 91.8997C8.42614 108.418 3.65334 127.097 1.42566 146.463H600.298C604.208 135.09 607.1 123.46 608.947 111.682C610.729 100.297 611.442 89.2935 610.723 79.0415ZM122.233 121.157H111.501C112.924 121.157 114.289 121.659 115.295 122.553C116.301 123.446 116.867 124.658 116.867 125.922C116.867 127.186 116.301 128.398 115.295 129.291C114.289 130.185 112.924 130.687 111.501 130.687H49.421C47.9978 130.687 46.633 130.185 45.6267 129.291C44.6204 128.398 44.0551 127.186 44.0551 125.922C44.0551 124.658 44.6204 123.446 45.6267 122.553C46.633 121.659 47.9978 121.157 49.421 121.157H60.1528C58.7297 121.157 57.3648 120.655 56.3585 119.762C55.3522 118.868 54.7869 117.656 54.7869 116.392C54.7869 115.128 55.3522 113.916 56.3585 113.023C57.3648 112.129 58.7297 111.627 60.1528 111.627H52.4896C51.0665 111.627 49.7016 111.125 48.6953 110.232C47.689 109.338 47.1237 108.126 47.1237 106.862C47.1237 105.599 47.689 104.387 48.6953 103.493C49.7016 102.599 51.0665 102.097 52.4896 102.097H114.569C115.993 102.097 117.357 102.599 118.364 103.493C119.37 104.387 119.935 105.599 119.935 106.862C119.935 108.126 119.37 109.338 118.364 110.232C117.357 111.125 115.993 111.627 114.569 111.627H122.233C123.656 111.627 125.021 112.129 126.027 113.023C127.033 113.916 127.599 115.128 127.599 116.392C127.599 117.656 127.033 118.868 126.027 119.762C125.021 120.655 123.656 121.157 122.233 121.157V121.157Z" fill="#640DFF"/>
<g clip-path="url(#clip0)">
<path d="M352.5 578C504.102 578 627 571.719 627 563.971C627 556.223 504.102 549.942 352.5 549.942C200.898 549.942 78 556.223 78 563.971C78 571.719 200.898 578 352.5 578Z" fill="#E6E6E6"/>
<path d="M584.587 358.983V362.379C584.587 362.379 590.702 384.11 583.228 384.11C575.753 384.11 573.035 363.058 573.035 363.058V358.983H584.587Z" fill="#FFB8B8"/>
<path d="M448.689 281.567L450.048 276.134C450.048 276.134 457.522 259.157 463.637 262.552C469.753 265.948 460.919 278.85 460.919 278.85L459.56 282.246L448.689 281.567Z" fill="#FFB8B8"/>
<path d="M492.176 524.684L493.535 536.228L506.445 538.265V523.325L492.176 524.684Z" fill="#FFB8B8"/>
<path d="M563.523 521.288L564.881 538.265L579.83 536.228L577.112 519.929L563.523 521.288Z" fill="#FFB8B8"/>
<path d="M486.061 392.26L483.343 392.938L490.817 464.923V529.437L509.842 526.041L519.355 412.633L548.573 468.318L562.843 524.684L585.266 520.609L566.92 449.983L554.689 382.752L486.061 392.26Z" fill="#2F2E41"/>
<path d="M499.65 532.153C499.65 532.153 493.535 528.079 491.496 530.795C489.458 533.511 480.625 547.093 480.625 547.093C480.625 547.093 458.881 569.504 480.625 568.825C480.625 568.825 494.894 568.825 497.612 560.675C497.612 560.675 498.291 556.601 503.048 556.601C507.804 556.601 513.24 551.847 513.24 549.131C513.24 546.414 508.484 532.699 506.445 534.803C504.407 536.907 499.65 532.153 499.65 532.153Z" fill="#2F2E41"/>
<path d="M572.6 532.153C572.6 532.153 578.716 528.079 580.754 530.795C582.793 533.511 591.626 547.093 591.626 547.093C591.626 547.093 613.37 569.504 591.626 568.825C591.626 568.825 577.357 568.825 574.639 560.675C574.639 560.675 573.959 556.601 569.203 556.601C564.447 556.601 559.011 551.847 559.011 549.131C559.011 546.414 563.767 532.699 565.806 534.803C567.844 536.907 572.6 532.153 572.6 532.153Z" fill="#2F2E41"/>
<path d="M487.759 278.101C497.665 278.101 505.695 270.075 505.695 260.175C505.695 250.275 497.665 242.25 487.759 242.25C477.853 242.25 469.823 250.275 469.823 260.175C469.823 270.075 477.853 278.101 487.759 278.101Z" fill="#FFB8B8"/>
<path d="M486.401 274.436L495.913 285.98L512.9 271.719L500.67 262.212L486.401 274.436Z" fill="#FFB8B8"/>
<path d="M491.496 286.32L492.052 281.295L511.127 270.341L537.04 267.884C537.841 267.808 538.648 267.89 539.417 268.127C540.186 268.363 540.9 268.748 541.52 269.26C542.14 269.772 542.652 270.402 543.029 271.112C543.405 271.822 543.637 272.6 543.713 273.4L553.33 375.282L556.727 384.11C556.727 384.11 496.932 418.065 483.343 392.939L493.535 339.969L472.471 299.902L491.496 286.32Z" fill="#D0CDE1"/>
<path d="M537.702 269.343C538.117 269.274 538.523 269.158 538.912 268.998C540.158 268.549 541.516 268.515 542.782 268.901C544.049 269.286 545.157 270.071 545.941 271.137L576.433 312.805L587.984 361.021H571.676L560.804 328.424L543.138 305.335L537.702 269.343Z" fill="#D0CDE1"/>
<path d="M477.907 298.544L472.471 299.902L456.163 314.163L461.599 281.567L448.009 278.85L437.477 333.518L444.951 340.987L487.42 323.67L477.907 298.544Z" fill="#D0CDE1"/>
<path d="M494.902 260.116C494.902 260.116 487.534 249.303 483.317 252.864C479.101 256.424 467.279 263.407 464.788 257.88C462.297 252.352 471.87 242.225 479.095 239.804C486.32 237.383 499.008 234.165 502.987 244.841C505.383 251.614 506.182 258.849 505.322 265.981L494.902 260.116Z" fill="#2F2E41"/>
<path d="M495.646 262.196C496.658 261.828 496.942 260.054 496.28 258.234C495.618 256.413 494.26 255.236 493.249 255.603C492.237 255.971 491.953 257.745 492.615 259.565C493.277 261.386 494.634 262.563 495.646 262.196Z" fill="#FFB8B8"/>
<path d="M411.767 134.791H408.649V49.4141C408.649 42.9249 407.37 36.4993 404.885 30.5041C402.4 24.5089 398.758 19.0615 394.167 14.473C389.576 9.88447 384.125 6.24466 378.127 3.76138C372.128 1.2781 365.699 -2.04697e-05 359.206 2.45879e-10H178.218C171.725 -1.53522e-05 165.296 1.27811 159.297 3.76139C153.298 6.24467 147.848 9.88449 143.257 14.473C138.666 19.0615 135.024 24.5089 132.539 30.5041C130.054 36.4993 128.775 42.9249 128.775 49.4141V517.8C128.775 524.289 130.054 530.715 132.539 536.71C135.024 542.705 138.666 548.153 143.257 552.741C147.848 557.33 153.298 560.97 159.297 563.453C165.296 565.936 171.725 567.214 178.218 567.214H359.206C365.699 567.214 372.128 565.936 378.127 563.453C384.125 560.97 389.576 557.33 394.167 552.741C398.758 548.153 402.4 542.705 404.885 536.71C407.37 530.715 408.649 524.289 408.649 517.8V195.564H411.767V134.791Z" fill="#3F3D56"/>
<path d="M361.201 12.856H337.576C338.662 15.5181 339.077 18.4063 338.784 21.2663C338.49 24.1263 337.497 26.8703 335.893 29.2565C334.288 31.6427 332.121 33.5979 329.582 34.9499C327.044 36.3018 324.211 37.0091 321.334 37.0093H217.649C214.772 37.0091 211.94 36.3018 209.401 34.9499C206.862 33.5979 204.695 31.6427 203.09 29.2565C201.486 26.8703 200.493 24.1263 200.199 21.2663C199.906 18.4063 200.321 15.518 201.407 12.856H179.341C174.493 12.8559 169.691 13.8104 165.211 15.6649C160.732 17.5194 156.661 20.2376 153.233 23.6642C149.804 27.0909 147.084 31.1589 145.229 35.636C143.373 40.1132 142.418 44.9117 142.418 49.7577V517.457C142.418 522.303 143.373 527.101 145.229 531.578C147.084 536.056 149.804 540.124 153.233 543.55C156.661 546.977 160.732 549.695 165.211 551.55C169.691 553.404 174.493 554.359 179.341 554.359H361.201C366.05 554.359 370.851 553.404 375.331 551.55C379.811 549.695 383.881 546.977 387.31 543.55C390.738 540.124 393.458 536.056 395.314 531.578C397.169 527.101 398.124 522.303 398.124 517.457V49.7578C398.124 44.9118 397.169 40.1132 395.314 35.6361C393.458 31.1589 390.738 27.0909 387.31 23.6643C383.881 20.2376 379.811 17.5194 375.331 15.665C370.851 13.8105 366.05 12.856 361.201 12.856V12.856Z" fill="white"/>
<path d="M295.555 138.499H231.094V144.482H295.555V138.499Z" fill="#1283B3"/>
<path d="M343.444 159.195H231.094V165.177H343.444V159.195Z" fill="#E6E6E6"/>
<path d="M343.334 179.891H231.094V185.873H343.334V179.891Z" fill="#E6E6E6"/>
<path d="M217.736 138.588H169.847V186.449H217.736V138.588Z" fill="#1283B3"/>
<path d="M295.555 264.134H231.094V270.117H295.555V264.134Z" fill="#1283B3"/>
<path d="M343.444 284.83H231.094V290.813H343.444V284.83Z" fill="#E6E6E6"/>
<path d="M343.334 305.526H231.094V311.508H343.334V305.526Z" fill="#E6E6E6"/>
<path d="M217.736 264.223H169.847V312.084H217.736V264.223Z" fill="#1283B3"/>
<path d="M295.555 389.77H231.094V395.752H295.555V389.77Z" fill="#1283B3"/>
<path d="M343.444 410.465H231.094V416.448H343.444V410.465Z" fill="#E6E6E6"/>
<path d="M343.334 431.161H231.094V437.144H343.334V431.161Z" fill="#E6E6E6"/>
<path d="M217.736 389.858H169.847V437.719H217.736V389.858Z" fill="#1283B3"/>
</g>
<defs>
<clipPath id="clip0">
<rect width="549" height="578" fill="white" transform="translate(78)"/>
</clipPath>
</defs>
</svg>
